<svg xmlns="http://www.w3.org/2000/svg" viewBox="0 0 48 48" width="420px" height="420px"><linearGradient id="SVGID_1_" x1="41.475" x2="9.249" y1="2.775" y2="35.001" gradientUnits="userSpaceOnUse"><stop offset="0" stop-color="#60affe"></stop><stop offset=".15" stop-color="#7fbffe"></stop><stop offset=".436" stop-color="#b6daff"></stop><stop offset=".684" stop-color="#deeeff"></stop><stop offset=".88" stop-color="#f6faff"></stop><stop offset="1" stop-color="#fff"></stop></linearGradient><path fill="url(#SVGID_1_)" d="M45,13.9c-0.6-0.5-1-1.3-1-2.1c0-0.715,0.33-1.418,0.826-1.919l0.765-0.293 c0.241-0.204,0.312-0.513,0.245-0.787c-0.209-0.699-0.506-1.374-0.872-2.011C44.61,6.146,44.188,5.542,43.7,5 c-0.2-0.2-0.5-0.3-0.8-0.2L42.4,5C42,5.2,41.5,5.2,41,5.2c-0.557-0.093-1.023-0.341-1.388-0.685 c-0.367-0.41-0.624-0.923-0.703-1.452l-0.082-0.635c-0.041-0.17-0.141-0.323-0.28-0.434C38.437,1.827,38.291,1.7,38.1,1.7 c-0.6-0.1-1.3-0.2-2-0.2c-0.7,0-1.969,0.263-1.969,0.263c-0.236,0.086-0.436,0.272-0.499,0.546L33.543,2.84 c-0.037,0.446-0.297,0.873-0.557,1.3c-0.795,0.921-1.979,1.136-3.023,0.735l-0.65-0.279c-0.308-0.071-0.669-0.056-0.825,0.201 c-0.397,0.461-0.847,1.006-1.211,1.604c-0.019,0.032-0.033,0.066-0.052,0.098H8.949C7.32,6.5,6,7.852,6,9.521v20.959 C6,32.148,7.32,33.5,8.949,33.5h30.602c1.629,0,2.949-1.352,2.949-3.021V18.888l0.287,0.115c0.308,0.071,0.669,0.056,0.824-0.201 c0.397-0.461,0.847-1.006,1.211-1.604s0.643-1.248,0.869-1.812l-0.094-0.008c0.032-0.093,0.074-0.183,0.103-0.277 c0.1-0.3,0-0.6-0.2-0.8L45,13.9z"></path><path fill="none" stroke="#2e9bfe" stroke-linecap="round" stroke-linejoin="round" stroke-width="3" d="M13.191,33.5H8.5c-1.7,0-3-1.3-3-3V17v-6.1V9.5c0-1.7,1.3-3,3-3h13.468"></path><path fill="none" stroke="#2e9bfe" stroke-linecap="round" stroke-linejoin="round" stroke-width="3" d="M42.5,23.936V27.8v2.7c0,1.7-1.3,3-3,3H18.7"></path><line x1="14.5" x2="33.5" y1="41.5" y2="41.5" fill="none" stroke="#2e9bfe" stroke-linecap="round" stroke-linejoin="round" stroke-width="3"></line><line x1="29.3" x2="30.4" y1="33.5" y2="41.5" fill="none" stroke="#2e9bfe" stroke-linecap="round" stroke-linejoin="round" stroke-width="3"></line><line x1="18.7" x2="17.6" y1="33.5" y2="41.5" fill="none" stroke="#2e9bfe" stroke-linecap="round" stroke-linejoin="round" stroke-width="3"></line><line x1="10.2" x2="42.5" y1="27.5" y2="27.5" fill="none" stroke="#2e9bfe" stroke-linecap="round" stroke-linejoin="round" stroke-miterlimit="10" stroke-width="3"></line><path fill="none" stroke="#2e9bfe" stroke-linecap="round" stroke-linejoin="round" stroke-miterlimit="10" stroke-width="3" d="M42.4,18.6l0.5,0.2c0.3,0.1,0.6,0,0.8-0.2c0.9-1,1.6-2.2,2-3.5c0.1-0.3,0-0.6-0.2-0.8L45,13.9 c-0.6-0.5-1-1.3-1-2.1s0.4-1.6,1-2.1l0.5-0.4c0.2-0.2,0.3-0.5,0.2-0.8c-0.4-1.3-1.1-2.5-2-3.5c-0.2-0.2-0.5-0.3-0.8-0.2L42.4,5 C42,5.2,41.5,5.2,41,5.2C39.8,5,39,4.1,38.8,3l-0.1-0.7c-0.1-0.3-0.3-0.6-0.6-0.6c-0.6-0.1-1.3-0.2-2-0.2s-1.4,0.1-2,0.2"></path><path fill="none" stroke="#2e9bfe" stroke-linecap="round" stroke-linejoin="round" stroke-miterlimit="10" stroke-width="3" d="M29.7,5.1l-0.5-0.2c-0.3-0.1-0.6,0-0.8,0.2c-0.9,1-1.6,2.2-2,3.5c-0.1,0.3,0,0.6,0.2,0.8l0.5,0.4 c0.6,0.5,1,1.3,1,2.1s-0.4,1.6-1,2.1l-0.5,0.4c-0.2,0.2-0.3,0.5-0.2,0.8c0.4,1.3,1.1,2.5,2,3.5c0.2,0.2,0.5,0.3,0.8,0.2l0.5-0.2 c0.4-0.2,0.9-0.2,1.4-0.2c1.2,0.2,2,1.1,2.2,2.2l0.1,0.6c0.1,0.3,0.3,0.6,0.6,0.6c0.6,0.1,1.3,0.2,2,0.2s1.4-0.1,2-0.2"></path><circle cx="36" cy="11.9" r="2.7" fill="none" stroke="#2e9bfe" stroke-width="3"></circle></svg>